<?xml version="1.0" standalone="no"?>
<!DOCTYPE svg PUBLIC "-//W3C//DTD SVG 20010904//EN"
 "http://www.w3.org/TR/2001/REC-SVG-20010904/DTD/svg10.dtd">
<svg version="1.0" xmlns="http://www.w3.org/2000/svg"
 width="1727.000000pt" height="2146.000000pt" viewBox="0 0 1727.000000 2146.000000"
 preserveAspectRatio="xMidYMid meet">

<g transform="translate(0.000000,2146.000000) scale(0.100000,-0.100000)"
fill="#000000" stroke="none">
<path d="M1408 21384 c-365 -66 -673 -349 -768 -709 -32 -121 -38 -312 -12
-435 41 -199 124 -353 266 -496 106 -105 218 -178 345 -224 150 -55 199 -60
567 -60 l334 0 0 -3954 c0 -4302 -4 -4024 55 -4195 97 -287 332 -518 615 -609
150 -48 131 -47 1125 -47 l940 0 88 22 c49 13 122 37 163 54 165 69 182 84
937 837 l707 707 0 -1165 0 -1165 -2033 -2032 -2032 -2033 -925 -2 -925 -3
-88 -28 c-347 -108 -586 -358 -680 -711 l-22 -81 0 -2085 0 -2085 23 -85 c50
-181 125 -314 251 -443 128 -132 275 -218 462 -269 l84 -23 7750 0 7750 0 84
23 c187 51 334 137 462 269 126 129 201 262 251 443 l23 85 0 2085 0 2085 -22
81 c-94 353 -333 603 -680 711 l-88 28 -642 3 -643 3 0 4547 c0 2868 -4 4612
-10 4722 -53 936 -281 1794 -695 2615 -575 1139 -1441 2064 -2550 2725 -195
116 -606 322 -807 405 -710 291 -1408 450 -2173 495 -108 6 -1490 10 -3790 9
-3038 -1 -3632 -3 -3697 -15z m7332 -1934 c684 -33 1271 -186 1872 -486 903
-452 1622 -1170 2077 -2074 270 -537 418 -1054 476 -1656 13 -137 15 -741 15
-4756 l0 -4598 -3862 0 -3863 0 1521 1523 c985 985 1536 1543 1561 1582 86
130 142 272 163 420 8 59 10 791 8 2725 l-4 2645 -21 75 c-91 312 -288 541
-569 662 -125 53 -226 73 -379 72 -157 -1 -270 -24 -398 -82 -162 -74 -143
-56 -1602 -1514 l-1390 -1388 -133 0 -132 0 0 3430 0 3430 2228 0 c1317 0
2311 -4 2432 -10z m6530 -16480 l0 -970 -6635 0 -6635 0 0 970 0 970 6635 0
6635 0 0 -970z"/>
</g>
</svg>
